<?xml version="1.0" encoding="UTF-8" standalone="no"?>
<!DOCTYPE svg PUBLIC "-//W3C//DTD SVG 1.1//EN" "http://www.w3.org/Graphics/SVG/1.1/DTD/svg11.dtd">
<svg version="1.1" xmlns="http://www.w3.org/2000/svg" xmlns:xlink="http://www.w3.org/1999/xlink" preserveAspectRatio="xMidYMid meet" viewBox="0 0 640 640" width="640" height="640"><defs><path d="M610.92 313.56C610.92 477.88 477.52 611.29 313.19 611.29C148.87 611.29 15.46 477.88 15.46 313.56C15.46 149.24 148.87 15.83 313.19 15.83C477.52 15.83 610.92 149.24 610.92 313.56Z" id="aQDCxRE2j"></path><path d="M298.55 143.96C298.15 144.6 296.18 147.77 292.62 153.49C286.77 153.91 283.52 154.14 282.86 154.18C277.4 154.65 267.53 155.35 260.79 155.81C245.22 156.97 239.99 155.11 233.49 146.05C231.16 142.8 228.49 140.13 227.68 140.13C224.31 140.13 215.25 144.89 209.21 149.89C201.66 156.04 195.03 158.25 180.63 159.41C175.17 159.76 170.4 160.69 169.94 161.5C168.54 163.6 168.89 169.17 170.52 169.75C171.22 170.1 175.86 170.8 180.63 171.38C187.6 172.19 207 171.15 279.96 166.03C360.36 160.23 375.81 159.53 416.82 159.06C419.89 159.03 435.27 158.83 462.94 158.48L462.94 189.27L462.94 220.06C458.62 220.83 456.22 221.25 455.74 221.34C451.67 221.92 443.89 223.2 438.31 223.89C437.63 223.99 434.22 224.45 428.09 225.29L428.09 229L428.09 232.61C438.41 234.21 444.14 235.1 445.28 235.28C454.69 236.79 462.71 238.3 463.17 238.76C463.52 239.11 465.38 273.62 467.12 315.21C467.34 320.27 468.43 345.56 470.38 391.07C473.03 391.07 474.5 391.07 474.79 391.07C478.86 391.07 479.21 390.84 479.21 387.82C479.44 375.97 482.58 345.42 483.74 344.72C484.44 344.25 491.17 342.98 498.73 341.81C510 340.07 512.9 339.14 515.57 336.7C517.31 335.08 518.71 333.33 518.71 332.98C518.71 332.52 514.41 331.59 509.07 330.78C496.98 328.92 485.48 323.57 481.88 318C478.63 313.12 478.39 302.43 481.3 294.65C481.43 294.3 482.09 292.55 483.27 289.42C490.11 288.44 493.9 287.9 494.66 287.79C500.82 286.86 505.93 285.7 505.93 285.12C505.93 284.54 504.65 282.33 503.02 280.24C500.58 276.99 499.07 276.29 494.19 275.71C486.76 274.78 483.04 272.46 480.6 266.99C478.86 263.28 478.51 255.73 478.05 206.93C477.7 176.26 477 150.35 476.54 149.19C474.1 144.43 470.84 144.31 421.81 145.82C325.62 148.84 328.29 148.84 323.99 146.52C319.93 144.31 315.39 136.76 315.39 132.23C315.39 129.9 312.37 127.35 309.59 127.35C308.89 127.35 307.38 128.97 306.33 130.83C305.29 132.81 301.69 138.73 298.55 143.96Z" id="eqAPu0DkI"></path><path d="M154.49 175.68L154.49 204.14L154.49 232.49C152.19 237.09 150.91 239.65 150.65 240.16C147.75 246.31 145.66 248.75 140.78 252.12C137.52 254.33 132.99 256.89 131.02 257.58C128.93 258.28 127.18 259.33 127.18 259.79C127.18 260.84 133.92 262.93 147.63 266.18C148.19 266.31 150.98 266.97 156 268.16C156.83 275.69 157.3 279.87 157.39 280.7C159.13 296.74 157.62 305.45 152.28 311.49C149.14 314.98 127.07 327.18 123.81 327.18C123.23 327.18 122.19 327.87 121.49 328.69C120.45 329.96 123.23 330.78 136.25 332.87C144.96 334.26 153.32 335.89 154.6 336.47C156.93 337.4 157.16 338.56 157.86 350.64C159.13 375.16 160.99 410.82 162.04 435.57C164.13 481.11 164.83 483.9 175.4 487.85C180.86 489.83 183.3 489.94 218.73 488.78C239.3 488.08 279.84 487.5 308.89 487.5C312.4 487.5 329.94 487.5 361.52 487.5C360.05 482 359.24 478.94 359.08 478.33C357.68 473.21 356.29 468.8 355.94 468.33C355.48 467.99 351.64 468.22 347.23 469.03C337 470.66 197.82 470.54 189.69 468.8C176.21 465.89 171.33 454.62 171.33 426.63C171.33 414.54 171.45 414.08 174.59 410.94C178.07 407.46 185.74 406.06 215.48 403.85C224.08 403.16 236.16 402.11 242.2 401.53C248.24 400.83 256.72 400.02 261.14 399.56C261.66 399.51 264.25 399.28 268.92 398.86C268.92 396.49 268.92 395.17 268.92 394.91C268.92 391.31 268.46 390.73 263.46 388.4C258.47 386.08 256.03 385.85 240.46 385.96C226.17 385.96 220.24 386.54 207.35 389.22C198.75 390.96 186.32 392.7 179.81 393.05C179.02 393.1 175.07 393.33 167.96 393.75C167.75 332.82 167.64 298.98 167.61 292.21C167.27 195.2 167.15 190.32 164.94 182.65C162.5 174.05 162.04 173.59 157.39 174.86C157 174.97 156.04 175.24 154.49 175.68Z" id="a3MUUNA0jw"></path><path d="M354.43 229C354.49 232.45 354.76 249.68 355.24 280.7C357.06 280.22 358.06 279.94 358.26 279.89C363.38 278.73 367.56 276.17 369.65 272.92C371.39 270.36 371.74 267.69 371.39 258.63C371.16 249.92 371.63 246.66 373.14 243.53C375.11 239.69 375.81 239.34 387.43 236.56C398.81 233.77 399.62 233.3 399.62 230.75C399.62 227.96 399.04 227.84 385.1 225.52C384.13 225.36 379.29 224.59 370.58 223.2C369.53 209.74 368.95 202.27 368.84 200.77C367.09 177.77 366.63 176.26 361.87 176.14C360.94 176.14 358.96 175.79 357.68 175.45C356.29 175.1 354.78 175.33 354.31 176.14C353.85 176.84 353.85 200.66 354.43 229Z" id="acGTzmp2r"></path><path d="M356.17 359.13C355.13 379.69 352.8 382.01 331.43 384.22C324.81 384.8 316.32 385.96 312.49 386.78C312.03 386.88 309.7 387.38 305.52 388.29L305.17 393.17L304.82 398.05C312.42 398.05 316.64 398.05 317.49 398.05C333.29 398.05 341.19 399.56 347.92 403.62C354.43 407.69 354.55 408.04 356.06 440.92C356.75 455.32 357.34 467.17 357.57 467.29C358.73 468.33 375.11 479.25 375.23 479.02C375.69 478.21 373.37 441.5 372.32 433.6C368.49 404.09 372.55 399.21 402.76 396.3C411.94 395.37 420.3 394.56 421.47 394.56C422.98 394.56 423.44 393.63 423.44 390.61C423.44 386.19 423.56 386.19 412.64 384.1C408.34 383.17 401.48 383.06 393.35 383.52C373.48 384.8 370 381.66 370 361.8C369.88 352.85 369.3 349.02 366.05 339.37C365.8 338.6 364.56 334.73 362.33 327.76L359.54 336.47C357.61 344.91 356.48 352.46 356.17 359.13Z" id="dF2z0ikZj"></path></defs><g><g><g><use xlink:href="#aQDCxRE2j" opacity="1" fill="#2B4764" fill-opacity="1"></use><g><use xlink:href="#aQDCxRE2j" opacity="1" fill-opacity="0" stroke="#9e916f" stroke-width="14.67" stroke-opacity="1"></use></g></g><g><use xlink:href="#eqAPu0DkI" opacity="1" fill="#b99f57" fill-opacity="1"></use><g><use xlink:href="#eqAPu0DkI" opacity="1" fill-opacity="0" stroke="#000000" stroke-width="1" stroke-opacity="0"></use></g></g><g><use xlink:href="#a3MUUNA0jw" opacity="1" fill="#b99f57" fill-opacity="1"></use><g><use xlink:href="#a3MUUNA0jw" opacity="1" fill-opacity="0" stroke="#000000" stroke-width="1" stroke-opacity="0"></use></g></g><g><use xlink:href="#acGTzmp2r" opacity="1" fill="#b99f57" fill-opacity="1"></use><g><use xlink:href="#acGTzmp2r" opacity="1" fill-opacity="0" stroke="#000000" stroke-width="1" stroke-opacity="0"></use></g></g><g><use xlink:href="#dF2z0ikZj" opacity="1" fill="#b99f57" fill-opacity="1"></use><g><use xlink:href="#dF2z0ikZj" opacity="1" fill-opacity="0" stroke="#000000" stroke-width="1" stroke-opacity="0"></use></g></g></g></g></svg>
